<svg width="121" height="44" viewBox="0 0 121 44" fill="none" xmlns="http://www.w3.org/2000/svg">
<g clip-path="url(#clip0_70_270)">
<g clip-path="url(#clip1_70_270)">
<g clip-path="url(#clip2_70_270)">
<path fill-rule="evenodd" clip-rule="evenodd" d="M41.4358 25.6947L39.9565 23.1393H37.7905V25.6947H36.5164V18.0217H40.3528C40.8205 18.018 41.2802 18.1427 41.6819 18.3822C42.0836 18.6218 42.4118 18.967 42.6309 19.3802C42.8499 19.7934 42.9513 20.2588 42.9241 20.7257C42.8968 21.1926 42.742 21.6431 42.4764 22.028C42.199 22.4363 41.8076 22.7539 41.3509 22.9412L42.9294 25.6947H41.4358ZM40.3528 19.3241H37.7905V21.8723H40.3528C40.5203 21.8722 40.6859 21.8376 40.8394 21.7706C40.9928 21.7037 41.1308 21.6057 41.2447 21.483C41.4211 21.3039 41.5409 21.0769 41.5892 20.8302C41.6375 20.5835 41.6122 20.328 41.5164 20.0956C41.4205 19.8632 41.2585 19.6641 41.0503 19.5231C40.8422 19.3822 40.5971 19.3056 40.3458 19.3029L40.3528 19.3241ZM53.993 18.0217L50.1494 25.6947H51.5793L53.993 20.8884L56.3997 25.6947H57.8295L53.993 18.0217ZM70.1883 18.0217H68.5603L66.373 20.853L64.1929 18.0217H62.5578L65.7643 22.113V25.6947H67.0384V22.0493L70.1883 18.0217ZM76.7145 18.0217H79.2698C80.285 18.0291 81.2565 18.4357 81.9744 19.1536C82.6923 19.8714 83.0989 20.843 83.1063 21.8582C83.1007 22.874 82.6947 23.8465 81.9764 24.5648C81.2582 25.2831 80.2856 25.6891 79.2698 25.6947H76.7145V18.0217ZM79.2698 24.3922C79.9469 24.3904 80.5958 24.1205 81.0746 23.6417C81.5534 23.1629 81.8232 22.5141 81.8251 21.8369C81.8177 21.1615 81.5461 20.5158 81.0685 20.0382C80.5909 19.5606 79.9452 19.289 79.2698 19.2816H77.9815V24.3922H79.2698ZM91.6217 18.0217H90.3476V25.6947H91.6217V18.0217ZM105.255 22.4881C105.262 22.9102 105.182 23.3292 105.02 23.719C104.858 24.1087 104.618 24.4609 104.313 24.7532C103.866 25.2004 103.297 25.5048 102.677 25.6279C102.056 25.7509 101.414 25.6871 100.83 25.4445C100.246 25.2019 99.7476 24.7914 99.3974 24.2651C99.0472 23.7388 98.8611 23.1203 98.8628 22.4881V18.0217H100.137V22.4881C100.137 22.9969 100.339 23.4848 100.699 23.8446C101.058 24.2043 101.546 24.4064 102.055 24.4064C102.564 24.4064 103.052 24.2043 103.412 23.8446C103.771 23.4848 103.973 22.9969 103.973 22.4881V18.0217H105.255V22.4881ZM113.77 25.6947V21.1079L116.339 23.6702L118.895 21.1079V25.6947H120.19V18.0217L116.339 21.8582L112.503 18.0217V25.6947H113.77Z" fill="#F1F1F2"/>
<path d="M27.0525 17.781V29.1914L14.3609 36.5175L1.66231 29.1914V14.532L14.3609 7.19881L24.115 12.8332L25.5873 11.9838L14.3609 5.5L0.190002 13.6826V30.0408L14.3609 38.2234L28.5319 30.0408V16.9316L27.0525 17.781Z" fill="url(#paint0_linear_70_270)"/>
<path d="M10.8076 29.1985H8.68408V22.0776H15.7625C16.4322 22.0702 17.072 21.7994 17.5436 21.3238C18.0152 20.8483 18.2806 20.2062 18.2824 19.5364C18.2862 19.2053 18.2223 18.8768 18.0945 18.5713C17.9666 18.2657 17.7777 17.9896 17.5391 17.7598C17.3083 17.5226 17.032 17.3345 16.7267 17.2068C16.4214 17.079 16.0934 17.0143 15.7625 17.0165H8.68408V14.8506H15.7695C17.01 14.858 18.1976 15.3541 19.0748 16.2312C19.9519 17.1084 20.448 18.296 20.4554 19.5364C20.463 20.486 20.1735 21.4141 19.6273 22.1908C19.1246 22.934 18.4162 23.5145 17.5887 23.8613C16.7693 24.1212 15.9142 24.2502 15.0546 24.2436H10.8076V29.1985Z" fill="url(#paint1_linear_70_270)"/>
<path d="M20.4059 29.0215H17.9284L16.0173 25.6876C16.7734 25.6413 17.5192 25.4888 18.2328 25.2346L20.4059 29.0215Z" fill="url(#paint2_linear_70_270)"/>
<path d="M25.5731 15.4097L27.0383 16.2238L28.5036 15.4097V13.6897L27.0383 12.8403L25.5731 13.6897V15.4097Z" fill="url(#paint3_linear_70_270)"/>
</g>
</g>
</g>
<defs>
<linearGradient id="paint0_linear_70_270" x1="28.5068" y1="13.6916" x2="-1.54336" y2="25.7086" gradientUnits="userSpaceOnUse">
<stop stop-color="#C200FB"/>
<stop offset="0.489658" stop-color="#3772FF"/>
<stop offset="0.489758" stop-color="#3773FE"/>
<stop offset="1" stop-color="#5AC4BE"/>
</linearGradient>
<linearGradient id="paint1_linear_70_270" x1="28.5068" y1="13.6916" x2="-1.54335" y2="25.7086" gradientUnits="userSpaceOnUse">
<stop stop-color="#C200FB"/>
<stop offset="0.489658" stop-color="#3772FF"/>
<stop offset="0.489758" stop-color="#3773FE"/>
<stop offset="1" stop-color="#5AC4BE"/>
</linearGradient>
<linearGradient id="paint2_linear_70_270" x1="28.5068" y1="13.6916" x2="-1.54336" y2="25.7086" gradientUnits="userSpaceOnUse">
<stop stop-color="#C200FB"/>
<stop offset="0.489658" stop-color="#3772FF"/>
<stop offset="0.489758" stop-color="#3773FE"/>
<stop offset="1" stop-color="#5AC4BE"/>
</linearGradient>
<linearGradient id="paint3_linear_70_270" x1="28.5068" y1="13.6916" x2="-1.54337" y2="25.7086" gradientUnits="userSpaceOnUse">
<stop stop-color="#C200FB"/>
<stop offset="0.489658" stop-color="#3772FF"/>
<stop offset="0.489758" stop-color="#3773FE"/>
<stop offset="1" stop-color="#5AC4BE"/>
</linearGradient>
<clipPath id="clip0_70_270">
<rect width="120" height="44" fill="white" transform="translate(0.190002)"/>
</clipPath>
<clipPath id="clip1_70_270">
<rect width="120" height="44" fill="white" transform="translate(0.190002)"/>
</clipPath>
<clipPath id="clip2_70_270">
<rect width="120" height="33" fill="white" transform="translate(0.190002 5.5)"/>
</clipPath>
</defs>
</svg>
